<svg xmlns="http://www.w3.org/2000/svg" width="250mm" height="250mm" viewBox="0 0 885.82677 885.82677"><path d="M265.304 111.834L87.114 249.957V521.27L459.05 801.22l370.525-281.18V248.724L647.14 114.3 459.05 251.19z" fill="#038ae5" fill-rule="evenodd"/><g fill="#0ff"><path d="M268.315 382.95L79.297 524.805V241.097L268.315 382.95z" fill="#039be5"/></g><g fill="#039be5" fill-opacity=".757"><path d="M266.823 104.98l.3 282.04L78.686 245.663 266.823 104.98z" fill="#03afe5" fill-opacity="1"/></g><g fill="#038ae5"><path d="M77.554 521.3l190.378-142.395-1.946 286.68L77.554 521.3z"/></g><g fill="#039be6" fill-opacity=".56"><path d="M264.405 385.88l-.318-280.955L463.68 245.74 264.406 385.88z" fill="#03bde6" fill-opacity="1"/></g><g fill="#039be5"><path d="M261.056 660.684l199.453-152.24v304.48l-199.454-152.24z" fill="#036de5"/></g><g fill="#038ae5"><path d="M463.09 521.778L261.482 378.053l2.06 289.36L463.09 521.777z"/></g><g fill="#0ff"><path d="M261.162 381.886l200.66 141.418V240.468l-200.66 141.418z" fill="#039be5"/></g><g><g fill="#0ff"><path d="M650.87 383.678L839.89 525.53V241.825L650.87 383.678z" fill="#039be5"/></g><g fill="#039be5" fill-opacity=".757"><path d="M652.362 105.708l-.3 282.04L840.5 246.39 652.36 105.708z" fill="#03afe5" fill-opacity="1"/></g><g fill="#038ae5"><path d="M841.63 522.027L651.254 379.632l1.946 286.68 188.43-144.285z"/></g><g fill="#039be6" fill-opacity=".56"><path d="M654.78 386.608l.318-280.956-199.593 140.814L654.78 386.608z" fill="#03bde6" fill-opacity="1"/></g><g fill="#039be5"><path d="M658.13 661.412l-199.454-152.24v304.48L658.13 661.41z" fill="#036de5"/></g><g fill="#038ae5"><path d="M456.097 522.505L657.703 378.78l-2.06 289.36-199.546-145.635z"/></g><g fill="#0ff"><path d="M658.023 382.613L457.363 524.03V241.196l200.66 141.418z" fill="#039be5"/></g></g></svg>