<svg width="292" height="217" xmlns="http://www.w3.org/2000/svg">
 <!-- Created with Method Draw - http://github.com/duopixel/Method-Draw/ -->
 <g>
  <title>background</title>
  <rect fill="none" id="canvas_background" height="219" width="294" y="-1" x="-1"/>
  <g display="none" overflow="visible" y="0" x="0" height="100%" width="100%" id="canvasGrid">
   <rect fill="url(#gridpattern)" stroke-width="0" y="0" x="0" height="100%" width="100%"/>
  </g>
 </g>
 <g>
  <title>Layer 1</title>
  <path stroke-dasharray="5,5" id="svg_8" d="m5.5,212l82,-32.5l56,-51l89,-24l48,-95" opacity="0.5" fill-opacity="null" stroke-width="2" stroke="#afafd1" fill="none"/>
  <ellipse stroke="#000" ry="12" rx="12" id="svg_1" cy="12" cx="280" stroke-width="0" fill="#534db7"/>
  <ellipse stroke="#000" ry="10" rx="10" id="svg_2" cy="101" cx="231" stroke-width="0" fill="#6a66b7"/>
  <ellipse stroke="#000" ry="8" rx="8" id="svg_3" cy="131" cx="144" stroke-width="0" fill="#8a89c4"/>
  <ellipse stroke="#000" ry="6" rx="6" id="svg_4" cy="211" cx="6" stroke-width="0" fill="#c5c5db"/>
  <ellipse stroke="#000" ry="7" rx="7" id="svg_5" cy="182" cx="86" stroke-width="0" fill="#a7a7c9"/>
  <path id="svg_7" d="m5.5,211c249,-165 83,-29 82,-29c-1,0 58,-56 58,-56.5c0,0.5 86,-18.5 86,-19c0,0.5 47,-97.5 47,-98" opacity="0.5" stroke-width="0" stroke="#c5c5db" fill="none"/>
 </g>
</svg>